<svg id="Capa_1" enable-background="new 0 0 512 512" height="512" viewBox="0 0 512 512" width="512" xmlns="http://www.w3.org/2000/svg" xmlns:xlink="http://www.w3.org/1999/xlink"><linearGradient id="SVGID_1_" gradientUnits="userSpaceOnUse" x1="219.22" x2="248.077" y1="354.932" y2="304.949"><stop offset="0" stop-color="#c5baeb"/><stop offset="1" stop-color="#d7d1eb"/></linearGradient><linearGradient id="SVGID_2_" gradientUnits="userSpaceOnUse" x1="118.265" x2="147.123" y1="250.425" y2="200.442"><stop offset="0" stop-color="#236568"/><stop offset="1" stop-color="#2f878a"/></linearGradient><g><path d="m475.165 126.184-33.183-19.158c-3.804-2.949-9.089-3.089-14.935.286l-275.293 158.941c-11.584 6.688-20.975 24.63-20.975 40.075v167.179c0 8.885 3.111 15 7.956 17.325l35.06 20.31z" fill="url(#SVGID_1_)"/><path d="m461.703 127.432-275.293 158.94c-11.584 6.688-20.974 24.63-20.974 40.075v167.179c0 15.445 9.391 22.544 20.974 15.857l200.186-115.578 57.703 17.226v-50.541l17.404-10.048c11.584-6.688 20.974-24.63 20.974-40.076v-167.178c.001-15.445-9.39-22.544-20.974-15.856z" fill="#e9e5f6"/><path d="m373.708 21.387-33.183-19.158c-3.804-2.949-9.089-3.089-14.935.286l-275.293 158.94c-11.584 6.688-20.975 24.63-20.975 40.075v167.18c0 8.885 3.111 15 7.956 17.325l35.06 20.31 29.662-11.501v19.331l34.657 20.12z" fill="url(#SVGID_2_)"/><path d="m360.246 22.634-275.293 158.941c-11.584 6.688-20.974 24.63-20.974 40.075v167.179c0 15.445 9.391 22.545 20.974 15.857l51.704-29.851v59.46l72.172-101.128 151.417-87.421c11.584-6.688 20.974-24.63 20.974-40.076v-167.179c.001-15.446-9.39-22.545-20.974-15.857z" fill="#06daae"/><g fill="#fff"><path d="m148.073 217.571v60.848l24.867-14.357v17.417l-40.188 23.203v-78.265z"/><path d="m195.214 190.354v78.265l-15.321 8.846v-78.265z"/><path d="m217.235 177.64 14.652 48.146 14.735-65.113 15.742-9.088-22.942 91.51-15.909 9.184-22.772-65.117z"/><path d="m314.197 121.66v16.301l-30.978 17.885v14.626l27.963-16.145v16.189l-27.963 16.256v14.738l31.816-18.369v16.301l-47.137 27.215v-78.265z"/></g><g fill="#43386b"><path d="m246.454 353.391c-9.043 5.221-15.908 18.675-15.908 31.179 0 12.617 6.865 18.254 15.908 13.034 4.856-2.803 10.465-9.615 14.567-17.566l8.959 7.667c-6.28 12.446-15.656 23.554-24.363 28.581-17.667 10.2-30.812.595-30.812-22.405 0-22.553 13.48-47.306 31.398-57.651 8.707-5.028 17.832-5.16 23.693-.281l-8.875 19.303c-3.85-4.029-9.461-4.809-14.567-1.861z"/><path d="m291.836 310.442v31.931l23.696-13.68v-31.931l15.321-8.846v78.265l-15.321 8.846v-30.033l-23.696 13.68v30.033l-15.32 8.846v-78.265z"/><path d="m381.347 323.184-25.37 14.647-4.102 16.213-15.741 9.088 25.202-92.815 15.741-9.088 24.615 64.054-16.326 9.426zm-4.522-13.02-8.037-23.272-8.206 32.65z"/><path d="m445.904 221.491v16.859l-17.582 10.151v61.406l-15.322 8.847v-61.407l-17.415 10.055v-16.859z"/></g></g></svg>